<?xml version="1.0" encoding="utf-8"?>
<!-- Generator: Adobe Illustrator 27.5.0, SVG Export Plug-In . SVG Version: 6.00 Build 0)  -->
<svg version="1.1" id="Layer_1" xmlns="http://www.w3.org/2000/svg" xmlns:xlink="http://www.w3.org/1999/xlink" x="0px" y="0px"
	 viewBox="0 0 122 28" style="enable-background:new 0 0 122 28;" xml:space="preserve">
<style type="text/css">
	.st0{fill:#7AF4E6;}
	.st1{fill:#2FB8AC;}
	.st2{fill:#ED706E;}
	.st3{fill:#9B5996;}
	.st4{fill:#37414A;}
</style>
<g>
	<path class="st0" d="M27.3,6.8C27.3,3,24.3,0,20.5,0s-6.8,3-6.8,6.7l0,0v14.3c0,0,0,0,0,0c0,3.8,3.1,6.8,6.8,6.8
		c3.8,0,6.8-3.1,6.8-6.8c0,0,0,0,0,0L27.3,6.8L27.3,6.8z"/>
	<path class="st1" d="M11.6,2C9-0.6,4.7-0.6,2,2.1C-0.6,4.7-0.6,9,2,11.6l13.7,14.3c0,0,0,0,0,0c2.7,2.7,7,2.7,9.7,0
		c2.7-2.7,2.7-7,0-9.7c0,0,0,0,0,0L11.6,2z"/>
	<path class="st2" d="M13.7,6.8C13.6,3,10.6,0,6.8,0C3.1,0,0.1,3.1,0,6.8l0,0v14.3c0,0,0,0,0,0C0,24.9,3.1,28,6.8,28
		s6.8-3.1,6.8-6.8c0,0,0,0,0,0V6.8z"/>
	<path class="st3" d="M43.8,19.8c0,4.5-3.7,8.2-8.2,8.2c-4.5,0-8.2-3.7-8.2-8.2c0-4.5,3.7-8.2,8.2-8.2
		C40.1,11.5,43.8,15.2,43.8,19.8z"/>
	<path class="st0" d="M55.5,23.9L55.5,23.9c-0.7,0-1.1-0.3-1.4-1c-0.4,0.7-1.2,1-2,1c-1.5,0-2.5-1-2.5-2.6c0-1.6,1-2.6,2.5-2.6
		c0.9,0,1.4,0.3,1.9,0.8v-0.7h0.6v2.9c0,0.3,0,0.5,0,0.7c0.1,0.5,0.3,0.8,0.8,0.8V23.9z M50.4,21.3c0,1.2,0.7,2,1.8,2
		c1.1,0,1.9-0.8,1.9-2s-0.8-2-1.9-2C51.1,19.4,50.4,20.2,50.4,21.3z"/>
	<path class="st0" d="M56.6,22.7c0.4,0.5,1,0.6,1.5,0.6c0.6,0,1.1-0.2,1.1-0.8c0-1.3-2.9-0.6-2.9-2.5c0-0.7,0.6-1.3,1.7-1.3
		c0.8,0,1.3,0.3,1.7,0.6l-0.5,0.4c-0.3-0.3-0.7-0.5-1.2-0.5c-0.7,0-1,0.3-1,0.7c0,1.2,2.9,0.6,2.9,2.5c0,0.9-0.7,1.4-1.8,1.4
		c-0.8,0-1.5-0.2-2-0.8L56.6,22.7z"/>
	<path class="st0" d="M61.2,22.7c0.4,0.5,1,0.6,1.5,0.6c0.6,0,1.1-0.2,1.1-0.8c0-1.3-2.9-0.6-2.9-2.5c0-0.7,0.6-1.3,1.7-1.3
		c0.8,0,1.3,0.3,1.7,0.6l-0.5,0.4c-0.3-0.3-0.7-0.5-1.2-0.5c-0.7,0-1,0.3-1,0.7c0,1.2,2.9,0.6,2.9,2.5c0,0.9-0.7,1.4-1.8,1.4
		c-0.8,0-1.5-0.2-2-0.8L61.2,22.7z"/>
	<path class="st0" d="M70.8,23.9L70.8,23.9c-0.6,0-1-0.3-1.2-0.8c-0.4,0.5-1,0.8-1.7,0.8c-1.2,0-2-0.7-2-2.1v-3h0.7v2.9
		c0,1,0.5,1.5,1.4,1.5c0.9,0,1.5-0.5,1.5-1.6v-2.9h0.7v3.5c0,0.5,0.2,0.9,0.7,0.9V23.9z"/>
	<path class="st0" d="M72.6,23.8h-0.7v-5h0.7v0.7c0.4-0.5,0.9-0.7,1.4-0.7c0.3,0,0.6,0.1,0.8,0.2l-0.4,0.6c-0.1-0.1-0.3-0.1-0.5-0.1
		c-0.7,0-1.2,0.6-1.2,1.6V23.8z"/>
	<path class="st0" d="M80.8,23.9L80.8,23.9c-0.7,0-1.1-0.3-1.4-1c-0.4,0.7-1.2,1-2,1c-1.5,0-2.5-1-2.5-2.6c0-1.6,1-2.6,2.5-2.6
		c0.9,0,1.4,0.3,1.9,0.8v-0.7H80v2.9c0,0.3,0,0.5,0,0.7c0.1,0.5,0.3,0.8,0.8,0.8V23.9z M75.7,21.3c0,1.2,0.7,2,1.8,2s1.9-0.8,1.9-2
		s-0.8-2-1.9-2C76.5,19.4,75.7,20.2,75.7,21.3z"/>
	<path class="st0" d="M86.3,23.8h-0.7V21c0-1.1-0.6-1.6-1.5-1.6c-0.8,0-1.6,0.6-1.6,1.6v2.8h-0.7v-5h0.7v0.7c0.4-0.5,1-0.8,1.7-0.8
		c1.2,0,2,0.8,2,2.1V23.8z"/>
	<path class="st0" d="M91.9,23.4c-0.5,0.4-1,0.5-1.7,0.5c-1.6,0-2.6-1.1-2.6-2.6c0-1.5,1-2.6,2.6-2.6c0.7,0,1.3,0.2,1.7,0.6
		l-0.5,0.4c-0.3-0.3-0.7-0.4-1.2-0.4c-1.2,0-1.9,0.8-1.9,2c0,1.1,0.7,2,2,2c0.5,0,0.9-0.1,1.3-0.4L91.9,23.4z"/>
	<path class="st0" d="M97,23.4c-0.5,0.4-1.1,0.5-1.8,0.5c-1.6,0-2.7-0.9-2.7-2.6c0-1.5,1-2.6,2.5-2.6c1.4,0,2.4,1,2.4,2.4
		c0,0,0,0.2,0,0.4h-4.1c0.1,1.3,1,1.8,2,1.8c0.6,0,1.1-0.2,1.4-0.4L97,23.4z M96.7,20.9c-0.1-1.1-0.8-1.6-1.7-1.6
		c-0.9,0-1.6,0.6-1.7,1.6H96.7z"/>
	<path class="st4" d="M55,12.9V8.5c0-1-0.7-1.7-1.6-1.7c-0.9,0-1.6,0.6-1.6,1.7v4.4h-2V5.1h1.9v0.7C52.2,5.3,53.1,5,53.8,5
		c2,0,3.2,1.2,3.2,3.4v4.5L55,12.9L55,12.9z"/>
	<path class="st4" d="M62.5,13c-2.4,0-4.1-1.8-4.1-4c0-2.3,1.7-4,4.1-4s4.1,1.8,4.1,4C66.6,11.3,64.9,13,62.5,13z M64.7,9
		c0-1.3-1-2.3-2.2-2.3c-1.2,0-2.1,1-2.1,2.3c0,1.3,1,2.3,2.1,2.3C63.7,11.2,64.7,10.3,64.7,9z"/>
	<path class="st4" d="M72.6,7.3c-0.4-0.6-1.1-0.8-1.8-0.8c-0.7,0-1.1,0.3-1.1,0.7c0,1.4,4.3,0.5,4.3,3.4c0,1.7-1.5,2.5-3.1,2.5
		c-1.2,0-2.6-0.4-3.5-1.4l1.3-1.2c0.6,0.6,1.4,0.9,2.2,0.9c0.8,0,1.1-0.3,1.1-0.6c0-1.3-4.3-0.5-4.3-3.6c0-1.4,1.1-2.3,3-2.3
		c1.2,0,2.3,0.4,3.1,1.3L72.6,7.3L72.6,7.3z"/>
	<path class="st4" d="M80,7.3c-0.4-0.6-1.1-0.8-1.8-0.8c-0.7,0-1.1,0.3-1.1,0.7c0,1.4,4.3,0.5,4.3,3.4c0,1.7-1.5,2.5-3.1,2.5
		c-1.2,0-2.6-0.4-3.5-1.4l1.3-1.2c0.6,0.6,1.4,0.9,2.2,0.9c0.8,0,1.1-0.3,1.1-0.6c0-1.3-4.3-0.5-4.3-3.6c0-1.4,1.1-2.3,3-2.3
		c1.2,0,2.3,0.4,3.1,1.3L80,7.3L80,7.3z"/>
	<path class="st4" d="M82.8,3.2c0-0.6,0.5-1.1,1.1-1.1c0.6,0,1.1,0.5,1.1,1.1c0,0.6-0.5,1.1-1.1,1.1C83.3,4.3,82.8,3.8,82.8,3.2z
		 M82.9,12.9V5.1h2v7.8L82.9,12.9L82.9,12.9z"/>
	<path class="st4" d="M91.4,7.3c-0.4-0.6-1.1-0.8-1.8-0.8c-0.7,0-1.1,0.3-1.1,0.7c0,1.4,4.3,0.5,4.3,3.4c0,1.7-1.5,2.5-3.1,2.5
		c-1.2,0-2.6-0.4-3.5-1.4l1.3-1.2c0.6,0.6,1.4,0.9,2.2,0.9c0.8,0,1.1-0.3,1.1-0.6c0-1.3-4.3-0.5-4.3-3.6c0-1.4,1.1-2.3,3-2.3
		c1.2,0,2.3,0.4,3.1,1.3L91.4,7.3L91.4,7.3z"/>
	<path class="st4" d="M95.9,9.1c0-2.4,1.6-4,3.9-4c2.3,0,3.9,1.7,3.9,4c0,2.4-1.6,4-3.9,4C97.5,13.1,95.9,11.4,95.9,9.1z M102.7,9.1
		c0-1.9-1.3-3.1-2.9-3.1c-1.6,0-2.9,1.2-2.9,3.1c0,1.9,1.3,3.1,2.9,3.1C101.4,12.2,102.7,10.9,102.7,9.1z"/>
	<path class="st4" d="M112.6,13h-1.1V8.6c0-1.7-1-2.5-2.3-2.5c-1.2,0-2.4,0.9-2.4,2.5V13h-1.1V5.2h1.1v1.1c0.7-0.8,1.5-1.2,2.6-1.2
		c1.8,0,3.1,1.2,3.1,3.3L112.6,13L112.6,13z"/>
	<path class="st4" d="M121.5,12.3c-0.7,0.6-1.6,0.8-2.8,0.8c-2.5,0-4.2-1.4-4.2-4c0-2.4,1.6-4,3.8-4s3.7,1.5,3.7,3.7
		c0,0,0,0.3,0,0.6h-6.4c0.1,2.1,1.5,2.8,3.1,2.8c1,0,1.6-0.3,2.2-0.6L121.5,12.3z M120.9,8.5c-0.2-1.7-1.3-2.5-2.7-2.5
		c-1.4,0-2.5,0.9-2.7,2.5H120.9L120.9,8.5z"/>
</g>
</svg>
